<svg width="89" height="87" viewBox="0 0 89 87" fill="none" xmlns="http://www.w3.org/2000/svg">
<g clip-path="url(#clip0_118_4174)">
<path d="M0.417969 75.7821C0.417969 81.9781 5.49825 87 11.7648 87H77.0708C83.3384 87 88.418 81.9774 88.418 75.7821V11.2182C88.418 5.02187 83.3377 0 77.0711 0H11.7652C5.49756 0 0.417969 5.02255 0.417969 11.2179V75.7818V75.7821Z" fill="#563D7C"/>
<path d="M36.9098 38.4832V26.1629H47.8792C48.9242 26.1629 49.9313 26.2489 50.9014 26.4212C51.8715 26.5931 52.7298 26.9003 53.4761 27.3431C54.222 27.786 54.8191 28.4007 55.267 29.1875C55.7146 29.9746 55.9387 30.9829 55.9387 32.2121C55.9387 34.4255 55.267 36.0241 53.9237 37.0076C52.5806 37.9915 50.8643 38.4832 48.7746 38.4832H36.9098ZM25.1937 17.1621V69.8379H51.0135C53.4015 69.8379 55.7273 69.5429 57.9909 68.9526C60.2545 68.3623 62.2692 67.4525 64.0354 66.223C65.8013 64.9934 67.2069 63.407 68.2515 61.4645C69.2965 59.5216 69.8187 57.2222 69.8187 54.5663C69.8187 51.2709 69.0102 48.4553 67.3935 46.1192C65.7765 43.7828 63.3263 42.1474 60.0428 41.2129C62.4308 40.0819 64.2344 38.6307 65.4534 36.8601C66.672 35.0895 67.2814 32.8765 67.2814 30.2203C67.2814 27.7612 66.871 25.6956 66.0501 24.0232C65.2293 22.3512 64.0725 21.0108 62.58 20.0025C61.0878 18.9942 59.2968 18.2686 57.2072 17.8262C55.1179 17.3833 52.8044 17.1621 50.2672 17.1621H25.1937ZM36.9098 60.8371V46.3771H49.6701C52.2073 46.3771 54.2471 46.9548 55.7895 48.111C57.3316 49.2668 58.103 51.1971 58.103 53.9023C58.103 55.2797 57.8665 56.4107 57.3938 57.296C56.9212 58.1813 56.2869 58.8823 55.4908 59.3986C54.695 59.9151 53.7745 60.2839 52.7298 60.5054C51.6848 60.7263 50.5907 60.8371 49.4463 60.8371H36.9098Z" fill="white"/>
</g>
<defs>
<clipPath id="clip0_118_4174">
<rect width="88" height="87" fill="white" transform="translate(0.417969)"/>
</clipPath>
</defs>
</svg>
