<svg width="121" height="120" viewBox="0 0 121 120" fill="none" xmlns="http://www.w3.org/2000/svg">
<path d="M67.865 119.745C66.3012 119.471 64.6812 118.729 63.7625 117.908C63.1388 117.253 62.7829 116.389 62.765 115.485C62.765 114.566 63.2337 113.276 63.9762 111.99C64.4262 111.266 64.7787 110.486 65.03 109.665C65.1875 109.099 65.5175 108.18 65.7725 107.595L66.2225 106.523L66.3387 99.3563C66.3987 95.3925 66.515 91.7213 66.6125 91.1513C66.8675 89.5088 67.295 87.9075 67.8612 86.3475L68.2925 85.3125L67.6662 84.9413C67.1 84.5888 66.6312 84.1013 64.775 81.8925C62.4912 79.1963 59.4837 77.7113 55.2237 77.205C53.8362 77.07 52.43 76.9688 51.0237 76.9125C44.7725 76.62 41.1987 75.3113 37.9775 72.1463C35.5737 69.7838 34.325 67.0275 33.8187 62.9663C33.1362 57.4763 32.375 54.6638 30.9687 52.38C30.6221 51.816 30.2228 51.2861 29.7762 50.7975L29.21 50.2313L27.9612 51.0338C27.2787 51.4838 26.3187 52.05 25.85 52.305C24.2862 53.1638 22.8012 54.12 21.3762 55.155C17.8812 57.6938 14.0712 60.8775 11.9825 62.9663C11.045 63.9038 10.5575 64.3125 10.34 64.275C8.91498 64.0613 10.0062 57.8888 12.3312 53.2388C15.3012 47.2425 20.3 41.715 26.0825 37.9838C30.83 34.9163 38.5062 30.6975 42.0575 29.2125C48.365 26.5763 56.5287 23.7225 62.1162 22.2C63.29 21.8663 64.01 21.5738 64.4975 21.2438C65.5925 20.4825 66.665 20.1113 67.895 20.0925C68.93 20.0738 69.0275 20.055 70.025 19.3875C71.1987 18.6263 71.5475 18.585 72.7212 18.9975L73.4825 19.2713L74.42 18.6263L75.3575 18L76.7037 18.0188C77.7387 18.0375 78.2075 18 78.6575 17.805C79.2237 17.55 79.2425 17.5125 79.4 16.575C79.7525 14.5425 79.79 13.5263 79.5762 12.2963C79.3025 10.6763 79.265 4.3875 79.5387 3.15375C79.8312 1.82625 80.0262 1.5525 81.0237 1.065C82.5087 0.341252 83.6225 0.127502 86.18 0.127502C89.3037 0.127502 90.8862 0.558753 92.06 1.69125C93.1137 2.7075 93.29 5.08875 92.7425 10.6763C92.4087 13.8975 92.3712 14.7975 92.4687 16.905C92.5062 18.2513 92.6037 19.5225 92.645 19.6988C92.7237 20.0325 92.8025 20.0513 93.935 20.07C95.0487 20.0888 95.2437 20.1488 96.2975 20.6963C97.3137 21.225 98.075 21.87 98.2325 22.3388C98.2512 22.4363 98.4275 22.4363 98.7387 22.3388C99.3425 22.1625 99.8712 22.3575 100.302 22.8863C100.557 23.22 100.711 23.2763 101.3 23.2763C102.102 23.2763 102.395 23.4713 103.059 24.45C103.369 24.8893 103.795 25.2344 104.289 25.4475C105.384 25.995 106.869 27.5175 107.435 28.7288C108.312 30.525 108.489 32.6138 107.941 34.4888C107.746 35.1938 107.746 35.2125 108.155 35.895C109.014 37.3613 109.329 39.1575 108.976 40.68L108.781 41.58L109.366 42.165C112.276 45.075 111.845 49.8225 108.294 54.06C107.897 54.544 107.562 55.0756 107.296 55.6425C106.614 57.4575 105.83 58.7288 104.817 59.7825L103.782 60.8363H102.729C101.675 60.8363 100.19 60.4838 99.29 60.015C98.9187 59.82 98.9 59.82 98.9787 60.0525C99.215 60.9113 99.8 64.4063 99.995 66.3413C100.306 69.3113 100.209 73.6275 99.8 75.4838C99.5013 76.8586 99.0008 78.1816 98.315 79.41C97.925 80.0363 97.9062 80.1713 97.9812 80.9325C98.0975 82.005 97.8462 83.805 97.415 84.9938C96.8862 86.3813 96.6912 87.0263 96.575 87.7275C96.4775 88.3313 96.4775 88.3313 96.9087 88.3313C97.475 88.3313 97.7862 88.665 97.7862 89.3288C97.7862 89.6213 97.5312 91.2038 97.22 92.8238C96.3612 97.3763 96.3012 97.8825 96.3012 102.296C96.2825 106.849 96.2825 106.808 97.3175 107.49L99.6425 108.994C101.643 110.321 103.785 111.422 106.029 112.275C109.291 113.565 109.741 113.895 109.741 114.99C109.741 115.478 109.644 115.654 109.235 116.044C107.986 117.255 105.522 117.529 100.561 117C97.9832 116.758 95.3955 116.635 92.8062 116.629C85.97 116.531 84.9725 116.295 84.0762 114.596C83.57 113.621 83.6675 112.35 84.3687 110.261C84.68 109.343 84.9537 108.405 85.19 107.449C85.6587 105.184 85.3475 102.488 84.2525 99.4425L83.315 96.8438C82.3962 94.2075 81.89 89.3813 82.4375 88.29C82.535 88.0763 82.7112 88.035 83.18 88.0538L83.765 88.1138L84.2525 87.0975C84.6237 86.295 85.0325 85.77 86.1462 84.6563L87.5712 83.2313L87.4925 82.3125C87.4325 81.435 86.2812 77.175 86.1237 77.1938C86.0637 77.1938 85.7525 77.625 85.4 78.1688C84.5412 79.4588 82.6475 81.45 81.5712 82.1738C81.1025 82.485 80.7125 82.8563 80.7125 82.9763C80.6937 83.505 80.2437 84.54 79.6962 85.26C79.1675 85.965 79.13 86.0813 79.2087 86.7038C79.3437 87.6225 79.0512 90.57 78.7025 92.115C78.3864 93.2622 77.9541 94.3742 77.4125 95.4338C76.0662 98.2275 75.05 100.725 74.795 101.88C74.6108 102.992 74.4931 104.114 74.4425 105.24C74.3825 106.568 74.2475 107.858 74.15 108.131C74.015 108.503 74.015 108.795 74.1312 109.361C74.2287 109.77 74.2887 110.689 74.2662 111.413C74.2475 112.41 74.3262 113.055 74.6187 114.225C75.125 116.216 75.2225 117.469 74.99 118.211C74.8325 118.68 74.6787 118.856 74.15 119.111C72.9762 119.715 69.6575 120.049 67.8612 119.738L67.865 119.745ZM72.6087 118.144C73.2912 117.949 73.88 117.364 73.88 116.835C73.88 116.599 73.685 115.916 73.4487 115.313C72.98 114.161 72.1775 111.113 72.1775 110.606C72.1775 110.351 72.1962 110.333 72.5862 110.546L73.0175 110.783V110.235C72.9549 109.73 72.8431 109.233 72.6837 108.75C72.3125 107.636 72.275 107.618 69.9087 107.479L68.3075 107.4L67.7225 107.966C67.4008 108.297 67.1189 108.665 66.8825 109.061C66.6275 109.568 66.53 110.333 66.6875 110.505C66.725 110.565 67.1187 110.505 67.5462 110.408C67.8 110.332 68.0618 110.287 68.3262 110.273C68.3262 110.291 67.895 110.644 67.3512 111.015C65.0075 112.774 64.1862 113.846 64.1862 115.215C64.1862 116.64 65.5325 117.754 67.6437 118.088C69.0875 118.301 71.9 118.361 72.605 118.148L72.6087 118.144ZM104.386 115.819C104.971 115.114 104.892 114.394 104.15 113.573C103.719 113.141 103.231 112.77 102.684 112.478C102.136 112.185 101.589 111.851 101.041 111.503C100.051 110.861 99.0338 110.261 97.9925 109.706C97.0925 109.219 96.215 108.709 95.3562 108.165L95.0037 107.891V102.521C95.0037 97.23 94.985 97.1513 94.7112 97.23C93.3425 97.6013 91.0775 97.7775 88.2087 97.7175L85.1037 97.68L85.5537 98.775C86.3937 100.845 86.825 103.62 86.825 106.804C86.825 107.996 86.7462 108.424 86.4537 109.264C86.2962 109.673 86.1612 110.085 86.0225 110.494C85.9625 110.67 86.18 110.805 86.9787 111.041C87.5637 111.218 88.4225 111.394 88.9137 111.45L89.8137 111.548L89.7162 112.448C89.6187 113.464 89.735 114.536 89.99 114.87C90.1475 115.065 90.7325 115.144 93.4475 115.26C95.4987 115.358 97.7262 115.571 99.4812 115.826C101.004 116.063 102.646 116.258 103.134 116.258C103.955 116.276 104.034 116.239 104.382 115.826L104.386 115.819ZM73.1187 106.68C73.1975 106.62 73.3137 105.566 73.355 104.318C73.5125 100.823 73.6475 100.313 75.4062 96.3675C76.85 93.1463 77.615 90.1388 77.555 88.0088L77.5175 86.7375L76.97 87.2663C75.8375 88.3988 76.6175 86.6213 77.9675 85.0388C78.9837 83.8275 79.3362 83.1638 79.49 82.0913C79.5687 81.66 79.7262 81.4463 80.39 80.94C82.8735 79.0639 84.7871 76.5349 85.9175 73.635C86.1912 72.93 86.8925 70.53 87.4812 68.3025C88.5762 64.1813 89.1612 62.4038 89.69 61.6425C89.885 61.35 89.9637 61.29 89.9262 61.485C89.643 62.5324 89.4214 63.5955 89.2625 64.6688C89.105 65.625 88.8125 67.5 88.6175 68.8088C88.2462 71.4863 87.8562 73.2038 87.3275 74.5313L86.975 75.4313L87.9125 77.8538C88.8875 80.3325 89.3375 82.1325 89.4162 83.8688L89.4762 84.8438L88.715 85.0013C87.7102 85.1791 86.8136 85.7396 86.2137 86.565C85.55 87.5213 85.1787 88.305 85.355 88.4775C85.4337 88.5563 86.39 88.7325 87.485 88.8675C89.1837 89.0625 89.8287 89.0625 92.075 88.9275C93.05 88.89 94.01 88.7925 94.9662 88.6538C95.18 88.575 95.3975 88.1475 95.7462 87.0338C96.5487 84.4763 96.7025 83.5763 96.605 81.78L96.5262 80.1975L96.935 79.6688C97.8912 78.4575 98.6337 76.2713 98.945 73.71C99.3162 70.5863 98.6337 64.0425 97.3625 58.4175C96.7587 55.74 96.5037 54.1388 96.5037 52.9688V51.9338L95.5475 52.0313C92.1087 52.4025 87.95 52.305 85.4112 51.7763C84.0237 51.5025 80.5287 50.4675 79.7675 50.1338L79.1637 49.86L79.085 50.5425C79.025 50.9138 78.9687 51.285 78.89 51.675C78.7737 52.0838 78.8112 52.1813 79.535 52.8863C80.435 53.805 80.7087 54.2738 80.7087 54.8963C80.7087 55.2863 80.495 55.6013 79.4 56.7338C78.6149 57.5715 77.7438 58.3244 76.8012 58.98L75.53 59.8388L74.9825 61.7325C73.0287 68.6663 72.6575 74.9738 73.9475 79.485L74.2587 80.6175L73.6325 81.3975C71.2887 84.345 69.9012 86.5913 69.6875 87.8438C69.5625 88.4605 69.4187 89.0733 69.2562 89.6813C68.75 91.6163 68.3562 94.4475 68.1837 97.515C68.0635 100.083 67.8948 102.648 67.6775 105.21L67.58 105.971L68.555 106.264C69.1025 106.44 69.9237 106.635 70.3925 106.714C71.27 106.849 72.8937 106.811 73.145 106.676L73.1187 106.68ZM92.0825 95.9363C93.605 95.8388 94.9925 95.6025 95.2662 95.37C95.3825 95.2913 95.5212 94.8825 95.5587 94.47L95.6562 93.7275L94.445 94.0013C93.4887 94.1963 92.5325 94.3125 91.5725 94.3913C89.2662 94.4888 86.945 94.4288 84.6575 94.1963C83.8962 94.08 83.8962 94.08 84.1287 95.0738C84.3237 95.8163 84.365 95.8538 86.3562 95.9925C87.6837 96.1088 89.54 96.09 92.0787 95.9325L92.0825 95.9363ZM90.8112 92.5388C92.8025 92.3625 95.285 91.935 95.7725 91.68C95.93 91.6013 96.065 91.3088 96.125 90.975L96.3012 89.94L96.3987 89.4525L95.9112 89.55C93.7437 90 92.1012 90.135 88.82 90.135C85.6175 90.135 85.2462 90.1163 84.4062 89.8238C84.0834 89.6877 83.7397 89.6078 83.39 89.5875C83.255 89.6663 83.2325 90.78 83.3525 91.56C83.4312 92.0288 83.51 92.1075 83.9787 92.2425C85.4637 92.6513 87.965 92.7488 90.815 92.5163L90.8112 92.5388ZM54.5637 74.9213C59.5625 73.4775 66.1062 69.2363 71.4575 63.9263C73.1975 62.1863 73.4112 61.9538 73.6437 61.1738L73.955 60.1763C73.9925 60.0975 73.6812 59.9625 73.2725 59.865C72.2 59.61 71.3787 58.9875 71.3787 58.4213C71.3787 58.0875 71.1837 57.7575 70.6175 57.15C69.6987 56.115 69.4662 55.665 69.3687 54.6713L69.29 53.8688L68.195 53.0888C67.5687 52.6388 65.3825 51.4275 63.0575 50.2575C61.2872 49.3939 59.5544 48.4555 57.8637 47.445C55.91 46.1363 54.6012 44.5725 53.8587 42.72C53.7237 42.3488 53.5475 42.0375 53.4875 42.0375C53.33 42.0375 48.935 46.275 47.06 48.2663C42.4325 53.1488 39.2487 57.3863 37.235 61.3125C36.7287 62.2875 36.1812 63.4425 36.0237 63.87L35.7312 64.65L36.0837 65.9588C36.2975 66.6638 36.7475 67.815 37.1 68.4975C38.33 70.92 39.7962 72.3825 42.2187 73.575C44.8175 74.865 47.12 75.315 50.9675 75.255C53.0375 75.2363 53.645 75.1763 54.56 74.9025L54.5637 74.9213ZM15.11 57.7913C18.3912 54.8813 22.9212 51.6975 28.4712 48.3975C32.105 46.23 46.1487 39.1988 52.6137 36.3263C53.7875 35.7975 54.8412 35.31 54.9575 35.2538C55.0737 35.175 55.4075 34.335 55.7187 33.3975C57.0875 29.0625 57.77 28.2038 60.2487 27.6375C60.56 27.5588 60.6387 27.4613 60.6387 27.15C60.6387 26.5838 61.0287 25.275 61.3625 24.69C61.6175 24.24 61.6175 24.2213 61.4 24.2813C61.265 24.3188 60.4437 24.555 59.585 24.81C47.6712 28.2488 37.2612 32.8163 28.2762 38.52C18.6875 44.6138 13.16 51.9188 11.5587 60.6675L11.4425 61.3125L12.6162 60.1613C13.2425 59.5163 14.375 58.4625 15.1175 57.8175L15.11 57.7913ZM103.49 59.4525C104.446 58.965 105.931 56.7188 106.479 54.9413C106.636 54.315 106.947 53.73 107.397 53.2425C108.841 51.6413 110.034 48.7313 110.052 46.74C110.052 43.635 108.294 42.4425 105.736 43.77C105.402 43.9275 105.132 44.0438 105.091 44.0063C104.956 43.8713 105.676 43.1663 106.557 42.6188C107.709 41.8575 107.926 41.4075 107.926 39.7875C107.943 38.4781 107.554 37.1955 106.812 36.1163C106.46 35.5875 106.325 35.2388 106.381 35.0213L106.734 33.7125C107.221 31.9725 107.045 29.9813 106.284 28.7138C105.151 26.8013 103.764 25.8638 101.829 25.7063L100.696 25.6275L101.36 26.37C103.332 28.5 104.289 31.1738 103.899 33.4613C103.704 34.635 103.527 34.8675 102.395 35.3175L101.731 35.5913L101.81 36.4913C101.945 37.9575 101.694 39.03 100.756 41.0025C100.287 42 99.935 42.8963 99.9762 42.9938C100.092 43.3275 101.382 43.95 102.399 44.205L103.396 44.4413L102.77 44.655C101.949 44.91 101.772 45.2813 101.772 46.6275C101.772 47.8575 101.949 48.3675 102.845 49.7138C103.254 50.2988 103.527 50.9063 103.569 51.255C103.647 51.8025 103.629 51.84 103.179 51.9975C102.669 52.1407 102.144 52.2262 101.615 52.2525C99.7775 52.3688 99.6425 52.4288 98.8212 53.2088C98.0787 53.9138 98.06 53.9513 98.06 54.7313C98.06 55.8038 98.4687 57.975 98.7237 58.2675C99.0575 58.62 100.91 59.5388 101.634 59.6738C102.258 59.8305 102.918 59.7545 103.49 59.46V59.4525ZM76.4375 57.99C77.63 57.0525 78.5675 56.115 79.0925 55.3125C79.4262 54.825 79.445 54.7275 79.2875 54.315C79.0137 53.6888 77.2175 52.0688 76.22 51.5813C75.5553 51.2835 74.8522 51.0802 74.1312 50.9775L72.9012 50.82L72.14 49.8638C70.5575 47.91 69.68 46.3875 68.4275 43.4363C67.3325 40.935 66.3762 39.4725 64.8537 38.025C64.2275 37.44 63.7812 36.9525 63.8187 36.9525C63.8975 36.9525 64.64 37.3238 65.4987 37.7738C66.9237 38.535 67.1 38.595 67.745 38.4975C70.07 38.2238 72.1212 35.55 72.8637 31.8C73.0775 30.7463 73.5087 29.67 73.9587 29.025C73.9775 29.0063 74.8775 29.5913 75.9312 30.3525C78.6087 32.2463 79.1937 32.5388 80.7162 32.5988C81.7137 32.6363 82.28 32.5613 84.0762 32.13C87.905 31.1925 92.045 30.8213 94.565 31.155C95.99 31.35 98.0412 31.9763 99.5637 32.6963C101.067 33.4013 101.36 33.4388 101.847 33.0075C102.256 32.655 102.256 32.5988 102.256 31.29C102.237 29.355 101.532 27.2663 100.46 26.0175C99.9125 25.3725 98.3712 24.3188 96.845 23.5163C96.3024 23.2285 95.7624 22.936 95.225 22.6388C94.5012 22.2075 93.6837 22.2675 91.4562 22.8525C88.8762 23.5163 88.1937 23.5163 85.2462 22.755C82.745 22.1288 82.5912 22.11 80.1275 22.5C78.8187 22.695 75.5375 22.5788 74.4425 22.2863C73.895 22.1288 73.3475 21.975 72.8225 21.78C71.8662 21.4088 70.205 21.3488 68.7012 21.6225C65.7125 22.1513 63.4475 23.7713 62.6262 25.9763C62.195 27.09 62.255 27.6188 62.8212 27.9675C63.7212 28.5338 64.91 30.0788 64.91 30.6825C64.91 30.72 64.6175 30.4688 64.2837 30.1163C63.4437 29.2388 62.6825 28.845 61.7825 28.845C61.2002 28.8612 60.634 29.0397 60.1476 29.3603C59.6613 29.681 59.2742 30.1311 59.03 30.66C58.7672 31.35 58.5455 32.055 58.3662 32.7713C57.8187 34.7625 57.3312 35.82 56.2962 37.2263C55.3775 38.4975 55.2425 39.0638 55.5725 40.4888C56.3937 44.0813 57.8187 45.5288 63.7737 48.9075C66.8975 50.685 68.4987 51.6825 69.6725 52.56C70.5725 53.2238 70.5912 53.265 70.5125 53.7713C70.3362 54.945 71.0787 56.2125 72.545 57.2475C72.9162 57.5025 73.1487 57.7763 73.1487 57.9713C73.1487 58.3238 74.1462 58.8113 74.8662 58.8113C75.275 58.8113 75.59 58.635 76.43 57.99H76.4375ZM100.52 51.405C102.785 51.4838 102.901 51.3075 101.694 49.9013C100.422 48.435 100.074 47.2463 100.542 45.9375L100.737 45.4313L99.935 45.0413C99.6612 44.9063 99.3875 44.7675 99.1137 44.67C98.9787 45.1988 98.84 45.705 98.7237 46.2338C98.4312 47.4263 98.0787 50.5125 98.06 51.8213C98.06 51.9375 98.255 51.9 98.5887 51.6863C99.0575 51.4125 99.2937 51.375 100.524 51.4125L100.52 51.405ZM92.9225 51.2888C94.2912 51.21 95.6975 51.1125 96.0687 51.0525L96.7512 50.955L96.83 48.7088C96.9462 45.5063 97.415 43.6125 98.8025 40.5825C99.7775 38.4338 100.209 36.5588 99.995 35.1525C99.9162 34.5488 99.8787 34.5075 99.0575 34.155C97.5537 33.5579 95.9876 33.1315 94.3887 32.8838C92.8475 32.67 88.3137 32.7863 86.615 33.12C85.91 33.2363 84.6237 33.51 83.765 33.7238C81.635 34.2113 80.5025 34.155 78.8825 33.45C77.2812 32.745 76.265 32.1038 75.3087 31.2038C74.5475 30.4988 74.4687 30.4613 74.2737 30.6975C74.1162 30.8738 74.0375 31.4025 73.9812 32.535C73.9212 34.275 73.6475 35.19 72.8862 36.42C72.7171 36.6731 72.5727 36.9418 72.455 37.2225C72.455 37.2825 73.04 37.965 73.7637 38.7075C76.265 41.3063 77.495 41.97 79.4675 41.8313C80.1125 41.7713 80.5625 41.7938 80.5625 41.8688C80.5625 42.0263 79.2912 43.02 78.7662 43.2938C78.5112 43.4288 78.455 43.5675 78.4925 43.86L78.8037 45.9113C78.98 47.085 79.115 47.6288 79.2912 47.7863C79.76 48.1763 82.1825 49.4288 83.705 50.0513C85.6962 50.8538 86.7912 51.1463 88.3137 51.2813C90.1887 51.4388 90.2262 51.4388 92.9225 51.2813V51.2888ZM76.7712 49.14C76.8087 49.08 76.6737 47.9475 76.4187 46.6388C76.1075 44.8613 75.9312 44.2163 75.7362 44.04C75.6012 43.9238 74.8775 43.4138 74.1537 42.8888C73.2028 42.205 72.3018 41.4543 71.4575 40.6425L70.1112 39.315L69.3875 39.6863L68.6262 40.095C68.6903 40.4001 68.795 40.6952 68.9375 40.9725C69.1512 41.4413 69.5825 42.5925 69.8937 43.53C70.715 45.9713 71.36 47.145 72.98 49.2713L73.5837 50.0738L74.735 50.25C75.38 50.3475 76.025 50.4863 76.2012 50.5425C76.475 50.6588 76.5125 50.6025 76.5912 49.9763C76.6287 49.7025 76.6887 49.41 76.7675 49.1363L76.7712 49.14ZM101.517 24.8438C102.515 24.7463 102.691 24.6075 102.26 24.1613C101.986 23.8875 101.36 23.8688 100.854 24.1013C100.52 24.2588 100.445 24.2175 99.9162 23.6513C99.3687 23.0475 99.3312 23.025 98.645 23.1038C98.0187 23.1825 97.9212 23.1638 97.8425 22.9088C97.5986 22.4899 97.2955 22.1084 96.9425 21.7763C96.4989 21.2722 95.9443 20.8781 95.3225 20.625C94.1112 20.1563 93.4287 20.2163 92.2737 20.8613C88.9325 22.6763 89.0712 22.6575 85.8462 21.8363C82.8387 21.075 80.5925 20.295 79.8687 19.8038C79.265 19.395 77.975 18.945 76.8987 18.8063C76.0962 18.69 75.59 18.8663 74.8287 19.4888L74.42 19.8225L74.7912 20.4675C75.2975 21.3675 75.2412 21.4238 74.48 20.76C73.6587 20.0775 72.6837 19.6088 72.0575 19.5863C71.6075 19.5863 70.28 20.1713 70.1225 20.4263C70.0625 20.505 70.475 20.6025 71.0225 20.64C71.5887 20.7 72.3687 20.895 72.8975 21.1088C74.2662 21.6938 74.9675 21.8888 76.2162 22.0088C77.585 22.1438 80.0637 21.99 80.3562 21.7538C80.5137 21.6188 80.9412 21.5963 81.8412 21.675C83.0337 21.7538 83.5212 21.87 86.3525 22.6313C87.995 23.0813 89.1462 23.04 91.1 22.515C92 22.26 93.1325 22.0088 93.6012 21.9488C94.4037 21.87 94.5575 21.9113 95.81 22.4775C97.8012 23.3775 98.8587 23.9438 99.4437 24.4688C100.029 24.975 100.107 24.975 101.514 24.8588L101.517 24.8438ZM90.3837 21.4275L91.5762 20.8013L91.5387 19.59C91.52 18.75 91.4787 17.9288 91.4412 17.1113L91.3437 15.8625L90.1512 16.7813C89.4462 17.3288 88.7637 17.7375 88.4712 17.7975C87.6125 17.955 83.375 17.7975 82.9812 17.5838C82.4567 17.1963 81.9661 16.7647 81.515 16.2938L80.42 15.18L80.4012 15.8438C80.4012 16.1963 80.3637 16.8 80.285 17.1713C80.1875 17.8763 80.1875 17.895 80.9487 18.8513C81.3575 19.38 81.6912 19.8488 81.6912 19.905C81.6912 20.2763 87.335 22.035 88.6062 22.0538C89.015 22.0538 89.525 21.8775 90.3837 21.4275ZM88.1187 16.9913C89.525 16.7175 90.2075 15.7013 90.7362 13.125C91.2837 10.35 91.5575 5.99625 91.3025 4.14C91.0662 2.46 89.1912 1.7175 85.6175 1.83375C83.39 1.9125 82.4712 2.12625 81.71 2.77125C81.2412 3.16125 81.2412 3.2025 81.0275 5.055C80.6375 8.61 81.2225 13.6688 82.2387 15.5625C82.7262 16.4813 83.1575 16.8113 84.0537 16.9688C85.07 17.145 87.2375 17.145 88.115 16.9875L88.1187 16.9913Z" fill="black"/>
</svg>
