<svg width="121" height="121" viewBox="0 0 121 121" fill="none" xmlns="http://www.w3.org/2000/svg">
<path d="M22.6325 102.504L14.2062 8H106.794L98.3562 102.489L60.4437 113L22.6325 102.504Z" fill="#DE4C36"/>
<path d="M60.5 104.968L91.1375 96.4738L98.345 15.7288H60.5V104.968Z" fill="#DE4C36"/>
<path d="M60.5 50.7762H45.1625L44.105 38.9075H60.5V27.3162H31.4375L31.715 30.4287L34.5613 62.3675H60.5V50.7762ZM60.5 80.8775L60.4475 80.8925L47.54 77.4087L46.715 68.165H35.0787L36.7025 86.36L60.4475 92.9525L60.5 92.9375V80.8775Z" fill="#EBEBEB"/>
<path d="M60.4587 50.7762V62.3675H74.7312L73.3887 77.4012L60.4587 80.8887V92.9487L84.2225 86.36L84.395 84.4025L87.1175 53.8887L87.4025 50.7762H60.4587ZM60.4587 27.3162V38.9075H88.4562L88.6887 36.305L89.2175 30.4287L89.495 27.3162H60.4587Z" fill="white"/>
</svg>
