<svg width="106" height="101" viewBox="0 0 106 101" fill="none" xmlns="http://www.w3.org/2000/svg">
<path id="icon" d="M73.1971 70.2606C77.0688 69.8598 80.0061 66.5221 79.8725 62.5164C79.7393 58.5111 76.4012 55.3065 72.3959 55.3065H72.1291C67.9897 55.4401 64.7856 58.9115 64.9193 63.0504C65.0529 65.0533 65.8537 66.7889 67.0553 67.9906C62.516 76.9365 55.5734 83.4787 45.1594 88.9529C38.0832 92.6914 30.7402 94.0266 23.3971 93.0922C17.3889 92.291 12.716 89.6209 9.77827 85.2143C5.50614 78.6721 5.10573 71.5955 8.71065 64.5192C11.2475 59.4455 15.2525 55.707 17.7893 53.8377C17.2553 52.102 16.4541 49.1647 16.0537 47.0287C-3.30574 61.0479 -1.30287 80.0074 4.57172 88.9529C8.97745 95.6291 17.9229 99.768 27.8029 99.768C30.4729 99.768 33.143 99.5008 35.8135 98.8336C52.9033 95.4955 65.8541 85.3479 73.1971 70.2606ZM96.6955 53.7045C86.5483 41.8213 71.5951 35.2791 54.5053 35.2791H52.3693C51.1676 32.8758 48.6307 31.2733 45.827 31.2733H45.5598C41.4213 31.407 38.2172 34.8783 38.3504 39.0176C38.484 43.0229 41.8217 46.2274 45.827 46.2274H46.0938C49.0311 46.0938 51.568 44.2246 52.6361 41.6877H55.0393C65.1865 41.6877 74.7992 44.625 83.4779 50.3664C90.1533 54.7725 94.9598 60.5139 97.6299 67.4565C99.8996 73.0643 99.766 78.5385 97.3627 83.2119C93.6246 90.2881 87.3496 94.1602 79.0717 94.1602C73.7311 94.1602 68.6578 92.5578 65.9873 91.3561C64.5188 92.6914 61.8484 94.8274 59.9791 96.1631C65.7205 98.8332 71.5951 100.302 77.2025 100.302C90.0197 100.302 99.4992 93.2254 103.104 86.1492C106.976 78.4049 106.709 65.0533 96.6955 53.7045ZM28.8709 72.5299C29.0045 76.5356 32.3422 79.7397 36.3475 79.7397H36.6147C40.7537 79.6065 43.9578 76.1348 43.8242 71.9959C43.691 67.9901 40.3529 64.786 36.3475 64.786H36.0807C35.8135 64.786 35.4127 64.786 35.1463 64.9192C29.6721 55.8401 27.4025 45.9602 28.2037 35.2787C28.7373 27.2676 31.4078 20.3246 36.0807 14.5832C39.9525 9.64302 47.4291 7.23974 52.5029 7.10654C66.6549 6.83933 72.6627 24.4635 73.0635 31.5401C74.7992 31.9406 77.7365 32.8754 79.7393 33.543C78.1369 11.9135 64.7856 0.697937 51.9688 0.697937C39.9524 0.697937 28.8709 9.37663 24.4647 22.1942C18.3234 39.2844 22.3287 55.707 29.8053 68.6582C29.1381 69.5926 28.7373 71.0615 28.8709 72.5303V72.5299Z" fill="#764ABC"/>
</svg>
