<svg width="114" height="101" viewBox="0 0 114 101" fill="none" xmlns="http://www.w3.org/2000/svg">
<g clip-path="url(#clip0_118_4170)">
<path d="M93.4056 32.7027C92.2031 32.2887 90.9904 31.9051 89.7687 31.5523C89.9739 30.7106 90.1628 29.8792 90.3306 29.0623C93.0838 15.6483 91.2839 4.84178 85.1361 1.28375C79.2416 -2.12722 69.6016 1.42949 59.8659 9.93342C58.9064 10.773 57.9682 11.6368 57.0522 12.524C56.4389 11.934 55.8149 11.3556 55.1803 10.7888C44.9767 1.69616 34.7493 -2.13608 28.6081 1.43215C22.7189 4.85374 20.975 15.0127 23.4538 27.7254C23.7004 28.9844 23.9788 30.237 24.2888 31.4819C22.8412 31.8947 21.4442 32.3342 20.1073 32.8019C8.14443 36.9881 0.504761 43.5483 0.504761 50.3529C0.504761 57.3808 8.70629 64.43 21.1662 68.7043C22.1763 69.0495 23.1949 69.3692 24.2209 69.6634C23.8877 71.0042 23.5918 72.354 23.3337 73.7114C20.9706 86.2035 22.816 96.1223 28.6893 99.5222C34.7555 103.033 44.937 99.4247 54.8506 90.7268C55.6545 90.0196 56.4407 89.2925 57.2084 88.546C58.2004 89.5066 59.2189 90.4393 60.2627 91.343C69.866 99.6365 79.3502 102.985 85.2177 99.5762C91.2782 96.055 93.248 85.3995 90.6907 72.4356C90.4893 71.42 90.2634 70.4094 90.0132 69.4047C90.7282 69.1921 91.43 68.9732 92.1141 68.7455C105.067 64.4384 113.495 57.4747 113.495 50.3529C113.495 43.5234 105.609 36.919 93.4056 32.7027ZM90.5963 64.1474C89.9783 64.3525 89.3445 64.5505 88.6984 64.7432C87.2683 60.1995 85.3387 55.3684 82.9769 50.3764C85.2305 45.5036 87.086 40.734 88.4759 36.22C89.6319 36.5558 90.7534 36.9097 91.8347 37.2832C102.291 40.8961 108.669 46.2372 108.669 50.3529C108.669 54.7367 101.781 60.4277 90.5963 64.1474ZM85.9557 73.3765C87.0865 79.1087 87.2476 84.2916 86.4986 88.3435C85.8259 91.9844 84.4727 94.4115 82.799 95.3839C79.2385 97.4526 71.6235 94.7637 63.411 87.6706C62.4401 86.8305 61.4927 85.9634 60.5699 85.0703C63.7539 81.5756 66.9358 77.5131 70.0412 73.0008C75.5036 72.5144 80.6641 71.7188 85.344 70.6331C85.5694 71.5426 85.7734 72.4573 85.9557 73.3765ZM39.0257 95.0264C35.5469 96.2592 32.7759 96.2946 31.1009 95.3254C27.5369 93.2624 26.0552 85.298 28.0762 74.6151C28.3165 73.3527 28.5916 72.0972 28.9012 70.8502C33.5294 71.8779 38.6523 72.6168 44.1275 73.0624C47.2542 77.4776 50.5278 81.5358 53.8271 85.0894C53.1259 85.7703 52.4082 86.4338 51.6745 87.0793C47.2904 90.9252 42.8974 93.654 39.0257 95.0264ZM22.7277 64.1204C17.2181 62.2302 12.668 59.7738 9.54931 57.0933C6.74661 54.6848 5.33202 52.2932 5.33202 50.3529C5.33202 46.2234 11.4657 40.9564 21.6962 37.3766C22.9378 36.9425 24.2372 36.5327 25.5856 36.1482C26.9997 40.7641 28.8544 45.5904 31.0926 50.4707C28.8252 55.4233 26.9441 60.3267 25.5163 64.997C24.5798 64.7278 23.65 64.4355 22.7277 64.1204ZM28.191 26.7947C26.0676 15.9031 27.4777 7.68706 31.0268 5.62497C34.8067 3.42867 43.1653 6.56011 51.9755 14.4115C52.55 14.9247 53.1152 15.4482 53.6708 15.9819C50.3879 19.52 47.1443 23.548 44.0454 27.9371C38.7313 28.4315 33.6446 29.2253 28.9678 30.2889C28.6797 29.131 28.4206 27.9661 28.191 26.7951V26.7947ZM76.9301 38.8739C75.8255 36.9589 74.6799 35.0679 73.4941 33.2024C77.0992 33.66 80.5533 34.2673 83.797 35.0098C82.8233 38.1425 81.6095 41.4175 80.1808 44.7753C79.1365 42.7867 78.0527 40.8191 76.9301 38.8739ZM57.0544 19.4443C59.2806 21.8652 61.5104 24.5678 63.7036 27.5003C59.2546 27.2894 54.7982 27.2886 50.3491 27.4977C52.5445 24.5922 54.7932 21.8931 57.0544 19.4443ZM37.0511 38.9071C35.9425 40.8367 34.8789 42.792 33.8613 44.7713C32.456 41.4255 31.2532 38.1355 30.2712 34.9584C33.4949 34.2346 36.9328 33.6427 40.5149 33.1935C39.3159 35.0704 38.161 36.9754 37.0511 38.9067V38.9071ZM40.6178 67.8569C36.9169 67.4423 33.4274 66.881 30.2045 66.1767C31.202 62.9429 32.4312 59.5829 33.867 56.1653C34.8887 58.1461 35.9567 60.1026 37.07 62.033C38.2149 64.0176 39.4005 65.9614 40.6178 67.8569ZM57.1877 81.6027C54.8996 79.1255 52.6177 76.3848 50.3892 73.4372C52.5528 73.5222 54.7584 73.5656 57.0001 73.5656C59.3031 73.5656 61.5797 73.5138 63.8206 73.4137C61.6203 76.4145 59.3989 79.1592 57.1877 81.6027ZM80.2263 55.9907C81.7366 59.446 83.0096 62.7883 84.0203 65.9667C80.7444 66.7171 77.2073 67.3214 73.4804 67.7701C74.6746 65.8699 75.8311 63.9461 76.9491 61.9998C78.0858 60.0214 79.1784 58.0179 80.2263 55.9907ZM72.768 59.5794C71.0565 62.5634 69.2487 65.4909 67.3475 68.357C63.9038 68.6018 60.4525 68.7234 57.0001 68.7216C53.4837 68.7216 50.0635 68.6118 46.77 68.3974C44.8193 65.5378 42.977 62.6053 41.2472 59.6059H41.2476C39.5259 56.6225 37.9177 53.5745 36.4265 50.4685C37.9139 47.3618 39.5172 44.3124 41.233 41.3267L41.2326 41.3271C42.9478 38.3407 44.7753 35.4206 46.7113 32.5734C50.0715 32.3182 53.5172 32.1853 56.9996 32.1853H57.0001C60.4984 32.1853 63.9486 32.3195 67.3078 32.5765C69.2243 35.4195 71.0402 38.3295 72.7521 41.301C74.4736 44.2801 76.0982 47.3147 77.6231 50.3999C76.1138 53.5166 74.4944 56.5783 72.768 59.5794ZM82.7253 5.48056C86.5087 7.67067 87.9803 16.5024 85.603 28.0842C85.4512 28.8231 85.2808 29.5757 85.0955 30.339C80.4072 29.2528 75.3169 28.4452 69.9874 27.9433C66.8828 23.506 63.6656 19.4717 60.4361 15.9792C61.2825 15.1604 62.1491 14.3628 63.0349 13.5871C71.3768 6.30141 79.1732 3.42468 82.7253 5.48056ZM57.0001 40.2263C62.5724 40.2263 67.0898 44.7603 67.0898 50.3529C67.0898 55.9456 62.5724 60.4795 57.0001 60.4795C51.4278 60.4795 46.9104 55.9456 46.9104 50.3529C46.9104 44.7603 51.4278 40.2263 57.0001 40.2263Z" fill="#00D8FF"/>
</g>
<defs>
<clipPath id="clip0_118_4170">
<rect width="113" height="101" fill="white" transform="translate(0.5)"/>
</clipPath>
</defs>
</svg>
