<svg width="121" height="119" viewBox="0 0 121 119" fill="none" xmlns="http://www.w3.org/2000/svg">
<path d="M22.6325 101.154L14.21 7.4375H106.79L98.3562 101.139L60.4437 111.562L22.6325 101.154Z" fill="#1572B6"/>
<path d="M60.5 103.597L91.1375 95.174L98.345 15.1019H60.5V103.597Z" fill="#1F9CF0"/>
<path d="M60.5 49.054H75.8375L76.895 37.2842H60.5V25.7896H89.5625L89.285 28.8724L86.4387 60.5487H60.5V49.054Z" fill="white"/>
<path d="M60.5713 78.9044L60.5188 78.9193L47.6113 75.4609L46.7863 66.2942H35.15L36.7738 84.3413L60.515 90.8788L60.5713 90.8639V78.9044Z" fill="#EBEBEB"/>
<path d="M74.8513 60.0615L73.4563 75.4534L60.53 78.9119V90.8714L84.29 84.3412L84.4663 82.4001L86.48 60.0615H74.8513Z" fill="white"/>
<path d="M60.5413 25.7896V37.2842H32.5438L32.3113 34.6997L31.7825 28.8724L31.505 25.7896H60.5413ZM60.5 49.054V60.5487H47.7538L47.5213 57.9642L46.9963 52.1369L46.7188 49.054H60.5Z" fill="#EBEBEB"/>
</svg>
