<svg width="106" height="106" viewBox="0 0 106 106" fill="none" xmlns="http://www.w3.org/2000/svg">
<g clip-path="url(#clip0_118_4168)">
<path d="M103.52 48.3219L57.6758 2.48038C55.0372 -0.1598 50.7552 -0.1598 48.1134 2.48038L38.5937 12.0001L50.6699 24.0763C53.4762 23.1281 56.6943 23.7642 58.9313 26.0012C61.1789 28.2525 61.8106 31.4981 60.8393 34.3134L72.4775 45.952C75.2932 44.982 78.5421 45.6095 80.791 47.8621C83.934 51.0039 83.934 56.096 80.791 59.2399C77.6471 62.3841 72.555 62.3841 69.4095 59.2399C67.0454 56.8733 66.4613 53.4013 67.6582 50.4888L56.8046 39.6352L56.8034 68.1973C57.5902 68.5863 58.3088 69.1002 58.9313 69.7189C62.0743 72.8607 62.0743 77.9532 58.9313 81.0995C55.7874 84.2422 50.6929 84.2422 47.5535 81.0995C44.4105 77.9532 44.4105 72.8611 47.5535 69.7193C48.3067 68.9658 49.2019 68.369 50.1871 67.9635V39.1352C49.2004 38.7324 48.3048 38.1353 47.5535 37.3793C45.1722 35.0013 44.5996 31.5071 45.8198 28.5831L33.9154 16.6775L2.48105 48.1099C-0.160352 50.7525 -0.160352 55.0349 2.48105 57.6755L48.3259 103.518C50.9652 106.158 55.2464 106.158 57.8891 103.518L103.519 57.8884C106.16 55.247 106.16 50.9621 103.519 48.3219" fill="#DE4C36"/>
</g>
<defs>
<clipPath id="clip0_118_4168">
<rect width="105" height="105" fill="white" transform="translate(0.5 0.5)"/>
</clipPath>
</defs>
</svg>
