<svg width="89" height="88" viewBox="0 0 89 88" fill="none" xmlns="http://www.w3.org/2000/svg">
<g clip-path="url(#clip0_118_4166)">
<path fill-rule="evenodd" clip-rule="evenodd" d="M44.5 0C20.19 0 0.5 19.69 0.5 44C0.5 63.47 13.095 79.915 30.585 85.745C32.785 86.13 33.61 84.81 33.61 83.655C33.61 82.61 33.555 79.145 33.555 75.46C22.5 77.495 19.64 72.765 18.76 70.29C18.265 69.025 16.12 65.12 14.25 64.075C12.71 63.25 10.51 61.215 14.195 61.16C17.66 61.105 20.135 64.35 20.96 65.67C24.92 72.325 31.245 70.455 33.775 69.3C34.16 66.44 35.315 64.515 36.58 63.415C26.79 62.315 16.56 58.52 16.56 41.69C16.56 36.905 18.265 32.945 21.07 29.865C20.63 28.765 19.09 24.255 21.51 18.205C21.51 18.205 25.195 17.05 33.61 22.715C37.13 21.725 40.87 21.23 44.61 21.23C48.35 21.23 52.09 21.725 55.61 22.715C64.025 16.995 67.71 18.205 67.71 18.205C70.13 24.255 68.59 28.765 68.15 29.865C70.955 32.945 72.66 36.85 72.66 41.69C72.66 58.575 62.375 62.315 52.585 63.415C54.18 64.79 55.555 67.43 55.555 71.555C55.555 77.44 55.5 82.17 55.5 83.655C55.5 84.81 56.325 86.185 58.525 85.745C67.2597 82.796 74.8497 77.1822 80.2268 69.6937C85.6039 62.2052 88.4974 53.219 88.5 44C88.5 19.69 68.81 0 44.5 0Z" fill="black"/>
</g>
<defs>
<clipPath id="clip0_118_4166">
<rect width="88" height="88" fill="white" transform="translate(0.5)"/>
</clipPath>
</defs>
</svg>
