<svg width="121" height="121" viewBox="0 0 121 121" fill="none" xmlns="http://www.w3.org/2000/svg">
<path d="M8 8H113V113H8V8Z" fill="#F5DE19"/>
<path d="M78.5338 90.0312C79.4284 91.8485 80.8183 93.3759 82.5434 94.4375C84.2684 95.4991 86.2584 96.0515 88.2838 96.0313C92.3713 96.0313 94.985 93.9875 94.985 91.1562C94.985 87.7812 92.3 86.5738 87.8 84.605L85.3325 83.5475C78.2075 80.5138 73.4825 76.715 73.4825 68.6825C73.4825 61.2838 79.1075 55.6475 87.9313 55.6475C90.7877 55.4412 93.6416 56.0805 96.137 57.4856C98.6324 58.8907 100.659 60.9994 101.964 63.5488L94.25 68.48C93.7476 67.216 92.8728 66.1345 91.7416 65.379C90.6105 64.6236 89.2764 64.2298 87.9163 64.25C87.3229 64.1906 86.7236 64.2555 86.1567 64.4404C85.5897 64.6254 85.0675 64.9265 84.6234 65.3244C84.1792 65.7224 83.8228 66.2085 83.5769 66.7518C83.331 67.2951 83.2009 67.8837 83.195 68.48C83.195 71.4388 85.0288 72.6388 89.2625 74.48L91.73 75.5375C100.115 79.1338 104.855 82.7975 104.855 91.0363C104.855 99.92 97.8763 104.787 88.505 104.787C84.8537 105.02 81.213 104.191 78.0223 102.401C74.8317 100.61 72.2274 97.9342 70.5238 94.6963L78.5338 90.0312ZM43.6775 90.8863C45.2263 93.635 46.6363 95.96 50.0263 95.96C53.2663 95.96 55.3138 94.6925 55.3138 89.7612V56.21H65.18V89.8925C65.18 100.107 59.18 104.757 50.4463 104.757C47.3591 104.926 44.2931 104.157 41.6513 102.551C39.0096 100.944 36.9157 98.5761 35.645 95.7575L43.6775 90.8863Z" fill="black"/>
</svg>
