<svg width="118" height="88" viewBox="0 0 118 88" fill="none" xmlns="http://www.w3.org/2000/svg">
<g clip-path="url(#clip0_118_4172)">
<path d="M101.173 50.5766C97.1031 50.5975 93.5654 51.5694 90.6035 53.0063C89.5163 50.8721 88.4295 48.9708 88.238 47.576C88.0246 45.9493 87.7691 44.9561 88.0246 43.0122C88.2805 41.0683 89.4313 38.3001 89.4098 38.089C89.3888 37.8778 89.1539 36.8846 86.8099 36.8637C84.4659 36.8424 82.4413 37.3073 82.2069 37.92C81.9725 38.5326 81.525 39.9273 81.2266 41.3637C80.8217 43.4771 76.5386 51.0198 74.0882 54.971C73.2994 53.4291 72.6175 52.0765 72.4681 50.999C72.2551 49.3722 71.9992 48.379 72.2551 46.4351C72.511 44.4912 73.6618 41.7235 73.6403 41.5119C73.6188 41.3007 73.3844 40.3075 71.0404 40.2866C68.6959 40.2653 66.6714 40.7302 66.4374 41.3429C66.2029 41.9559 65.947 43.3923 65.4571 44.7871C64.9667 46.1818 59.277 58.775 57.7853 62.0285C57.1825 63.3453 56.5501 64.6487 55.8887 65.9376C55.8887 65.9376 55.8672 66.001 55.8032 66.1066C55.5954 66.5107 55.3825 66.9122 55.1643 67.311V67.3318C54.8444 67.9028 54.5035 68.4307 54.333 68.4307C54.2051 68.4307 53.9706 66.9095 54.3755 64.8387C55.2279 60.4652 57.2524 53.6615 57.2314 53.4291C57.2314 53.3022 57.6148 52.1191 55.9102 51.506C54.2476 50.8934 53.6512 51.9075 53.5018 51.9075C53.3528 51.9075 53.2458 52.2668 53.2458 52.2668C53.2458 52.2668 55.1004 44.618 49.7086 44.618C46.3418 44.618 41.6959 48.2734 39.3944 51.5694C36.778 52.9811 34.164 54.3968 31.5521 55.8166C30.2953 56.5139 28.9951 57.2113 27.7804 57.8661C27.6949 57.7818 27.6099 57.6758 27.5245 57.5915C21.0034 50.6822 8.94206 45.8012 9.45345 36.5257C9.6454 33.1449 10.8172 24.2705 32.6178 13.4947C50.5609 4.72583 64.8392 7.15549 67.3112 12.5436C70.8484 20.2349 59.6609 34.5183 41.1205 36.5887C34.0455 37.3708 30.3374 34.6661 29.4 33.652C28.4198 32.5953 28.2703 32.5318 27.9079 32.7435C27.3115 33.0606 27.6949 34.0113 27.9079 34.5605C28.4623 35.9969 30.7423 38.5326 34.5994 39.7796C38.0092 40.878 46.2988 41.491 56.3361 37.6454C67.5666 33.3348 76.3467 21.3546 73.7682 11.3183C71.1893 1.13391 54.1411 -2.22556 38.0092 3.45799C28.4198 6.83921 18.0201 12.1634 10.5402 19.094C1.65369 27.334 0.247022 34.497 0.822395 37.4976C2.8899 48.1465 17.7006 55.0771 23.6248 60.2114C23.3264 60.3804 23.049 60.5286 22.815 60.6555C19.8527 62.1132 8.55818 67.9658 5.74529 74.1568C2.54897 81.1716 6.25714 86.2009 8.70762 86.8765C16.3154 88.9686 24.1362 85.2076 28.3343 78.9953C32.5324 72.7834 32.021 64.7119 30.0819 61.0144C30.0604 60.9722 30.0394 60.9296 29.9964 60.8875C30.7638 60.4439 31.5521 59.979 32.3194 59.5354C33.7297 58.7088 35.1579 57.9126 36.603 57.1474C35.8781 59.1126 35.3453 61.458 35.0898 64.8387C34.7699 68.8113 36.4105 73.9665 38.5631 75.9947C39.5223 76.8828 40.6516 76.9037 41.3764 76.9037C43.8909 76.9037 45.0206 74.8329 46.2778 72.3819C47.812 69.3818 49.1972 65.8954 49.1972 65.8954C49.1972 65.8954 47.4711 75.3191 52.1595 75.3191C53.8642 75.3191 55.5903 73.1214 56.3576 72.0017V72.0226C56.3576 72.0226 56.4001 71.9592 56.4856 71.8114C56.656 71.5368 56.7625 71.3674 56.7625 71.3674V71.3257C57.4444 70.1421 58.979 67.4587 61.259 63.0004C64.1999 57.2534 67.0342 50.0696 67.0342 50.0696C67.0342 50.0696 67.2901 51.8232 68.1635 54.739C68.6753 56.4505 69.7402 58.331 70.5929 60.148C69.9111 61.0991 69.4847 61.627 69.4847 61.627L69.5062 61.6483C68.9518 62.3665 68.3554 63.1481 67.6946 63.9094C65.3716 66.6558 62.6017 69.8045 62.2178 70.7126C61.7699 71.7901 61.8769 72.5722 62.7297 73.2062C63.3475 73.6711 64.4553 73.734 65.5851 73.6711C67.6736 73.5229 69.1438 73.0158 69.8681 72.6991C70.9979 72.2976 72.3191 71.6846 73.5548 70.776C75.8353 69.1067 77.22 66.7192 77.0925 63.5714C77.0285 61.8386 76.4532 60.1059 75.7498 58.4787C75.9633 58.1833 76.1547 57.8874 76.3682 57.5915C79.9694 52.3724 82.7613 46.6462 82.7613 46.6462C82.7613 46.6462 83.0172 48.3998 83.8905 51.3161C84.3169 52.7951 85.1907 54.401 85.9576 55.9643C82.5693 58.6903 80.4808 61.8594 79.7349 63.9302C78.3927 67.7759 79.4365 69.5082 81.4186 69.9097C82.3134 70.1 83.5921 69.6772 84.5299 69.2757C85.7231 68.8956 87.1298 68.2408 88.4725 67.2684C90.753 65.5995 92.9475 63.275 92.8195 60.1272C92.7556 58.6903 92.3721 57.2743 91.8393 55.9009C94.7161 54.7182 98.4243 54.063 103.155 54.6122C113.299 55.7953 115.302 62.0706 114.918 64.7123C114.535 67.3531 112.404 68.79 111.701 69.2336C110.997 69.6777 110.763 69.8254 110.827 70.1421C110.912 70.607 111.253 70.5862 111.85 70.5014C112.681 70.3537 117.178 68.3672 117.369 63.5075C117.689 57.2956 111.722 50.5132 101.173 50.5766ZM22.9215 76.7346C19.5543 80.3687 14.8663 81.7421 12.8417 80.5803C10.6682 79.3333 11.5205 73.9665 15.6546 70.1213C18.1691 67.7759 21.4083 65.5991 23.5608 64.2683C24.0508 63.9724 24.7756 63.5501 25.6494 63.0217C25.7984 62.937 25.8838 62.8948 25.8838 62.8948L26.3952 62.5776C27.9079 68.0713 26.4592 72.9103 22.9215 76.7346ZM47.4286 60.2114C46.2563 63.043 43.8059 70.2903 42.3142 69.8888C41.0355 69.5508 40.2467 64.0571 42.0583 58.6269C42.9746 55.9009 44.9137 52.647 46.0434 51.3796C47.876 49.3509 49.9005 48.6744 50.3904 49.4991C51.0088 50.5766 48.1529 58.4365 47.4286 60.2114ZM67.6521 69.8041C67.1617 70.0578 66.6933 70.2269 66.4799 70.1C66.3309 70.0153 66.6933 69.6772 66.6933 69.6772C66.6933 69.6772 69.2292 66.973 70.2305 65.7473C70.8064 65.0291 71.4878 64.184 72.2126 63.2329V63.5075C72.2126 66.7405 69.0583 68.9169 67.6516 69.8041H67.6521ZM83.2512 66.2756C82.8888 66.0219 82.9527 65.1768 84.1675 62.5355C84.6364 61.5001 85.7441 59.7678 87.6412 58.0985C87.8542 58.7746 88.0036 59.4298 87.9821 60.0424C87.9606 64.1205 85.0202 65.6417 83.2512 66.2756Z" fill="#CD6799"/>
</g>
<defs>
<clipPath id="clip0_118_4172">
<rect width="117" height="87" fill="white" transform="translate(0.5 0.5)"/>
</clipPath>
</defs>
</svg>
