<svg width="132" height="132" viewBox="0 0 132 132" fill="none" xmlns="http://www.w3.org/2000/svg">
<path d="M37.3438 56.5844C41.1646 41.301 50.7167 33.6594 66 33.6594C88.925 33.6594 91.7906 50.8531 103.253 53.7187C110.895 55.6292 117.581 52.7635 123.312 45.1219C119.492 60.4052 109.94 68.0469 94.6562 68.0469C71.7313 68.0469 68.8656 50.8531 57.4031 47.9875C49.7615 46.0771 43.075 48.9427 37.3438 56.5844ZM8.6875 90.9719C12.5083 75.6885 22.0604 68.0469 37.3438 68.0469C60.2687 68.0469 63.1344 85.2406 74.5969 88.1062C82.2385 90.0167 88.925 87.151 94.6562 79.5094C90.8354 94.7927 81.2833 102.434 66 102.434C43.075 102.434 40.2094 85.2406 28.7469 82.375C21.1052 80.4646 14.4187 83.3302 8.6875 90.9719Z" fill="#44A8B3"/>
</svg>
