<svg width="113" height="112" viewBox="0 0 113 112" fill="none" xmlns="http://www.w3.org/2000/svg">
<path d="M102.035 17.605L81.854 7.88899C80.7143 7.33948 79.4319 7.15814 78.1845 7.37011C76.9372 7.58208 75.7867 8.17686 74.8925 9.07199L8.82998 69.3C8.02845 70.0273 7.54865 71.0432 7.49614 72.1243C7.44363 73.2053 7.82271 74.2629 8.54998 75.0645C8.63748 75.159 8.72498 75.25 8.81948 75.334L14.213 80.234C14.9178 80.8754 15.8249 81.2497 16.777 81.2919C17.729 81.3341 18.6657 81.0416 19.4245 80.465L98.997 20.125C99.598 19.6689 100.314 19.3897 101.066 19.3186C101.817 19.2476 102.573 19.3877 103.249 19.7231C103.924 20.0585 104.493 20.5758 104.891 21.217C105.289 21.8581 105.5 22.5975 105.5 23.352V23.1175C105.5 21.9656 105.175 20.8372 104.562 19.862C103.949 18.8868 103.073 18.1045 102.035 17.605Z" fill="#403930"/>
<path d="M102.035 94.395L81.854 104.115C80.714 104.662 79.4319 104.843 78.1849 104.631C76.9379 104.419 75.7875 103.825 74.8925 102.932L8.82998 42.7C8.02845 41.9727 7.54865 40.9568 7.49614 39.8758C7.44363 38.7947 7.82271 37.7371 8.54998 36.9355C8.63748 36.841 8.72498 36.75 8.81948 36.666L14.213 31.766C14.9185 31.1219 15.8277 30.7459 16.7821 30.7037C17.7365 30.6615 18.6754 30.9557 19.435 31.535L98.997 91.875C99.598 92.3311 100.314 92.6104 101.066 92.6814C101.817 92.7524 102.573 92.6123 103.249 92.2769C103.924 91.9415 104.493 91.4242 104.891 90.783C105.289 90.1419 105.5 89.4025 105.5 88.648V88.9C105.496 90.0488 105.169 91.1733 104.557 92.1451C103.944 93.1168 103.07 93.8965 102.035 94.395Z" fill="#1572B6"/>
<path d="M81.854 104.115C80.714 104.662 79.432 104.843 78.185 104.631C76.938 104.419 75.7876 103.825 74.8925 102.932C75.3952 103.428 76.033 103.764 76.7261 103.899C77.4193 104.034 78.1369 103.962 78.789 103.691C79.4412 103.42 79.9988 102.963 80.3921 102.376C80.7855 101.79 80.9969 101.1 81 100.394V11.606C81.0006 10.8965 80.7906 10.2028 80.3966 9.61277C80.0026 9.02274 79.4424 8.56291 78.7868 8.29155C78.1313 8.02019 77.41 7.9495 76.7142 8.08843C76.0184 8.22737 75.3796 8.56968 74.8785 9.072C75.7729 8.1772 76.9232 7.58239 78.1703 7.36983C79.4174 7.15727 80.6998 7.33747 81.84 7.8855L102.018 17.5875C103.059 18.0845 103.938 18.8658 104.554 19.8412C105.171 20.8165 105.498 21.9463 105.5 23.1V88.9C105.5 90.0528 105.175 91.1823 104.561 92.1582C103.948 93.1341 103.071 93.9168 102.032 94.416L81.854 104.115Z" fill="#1F9CF0"/>
</svg>
